<svg width="102" height="90" viewBox="0 0 102 90" fill="none" xmlns="http://www.w3.org/2000/svg">
<path d="M2.574 89C2.154 89 1.83 88.886 1.602 88.658C1.374 88.43 1.26 88.106 1.26 87.686V77.624C1.26 77.204 1.374 76.88 1.602 76.652C1.83 76.424 2.154 76.31 2.574 76.31H6.192C7.572 76.31 8.76 76.562 9.756 77.066C10.752 77.57 11.514 78.296 12.042 79.244C12.57 80.192 12.834 81.326 12.834 82.646C12.834 83.966 12.57 85.106 12.042 86.066C11.526 87.014 10.77 87.74 9.774 88.244C8.778 88.748 7.584 89 6.192 89H2.574ZM5.994 86.732C8.694 86.732 10.044 85.37 10.044 82.646C10.044 79.934 8.694 78.578 5.994 78.578H4.068V86.732H5.994ZM19.0205 89.144C18.0845 89.144 17.2625 88.958 16.5545 88.586C15.8465 88.202 15.3005 87.668 14.9165 86.984C14.5325 86.288 14.3405 85.472 14.3405 84.536C14.3405 83.6 14.5325 82.79 14.9165 82.106C15.3005 81.41 15.8465 80.876 16.5545 80.504C17.2625 80.132 18.0845 79.946 19.0205 79.946C19.9565 79.946 20.7785 80.132 21.4865 80.504C22.1945 80.876 22.7405 81.41 23.1245 82.106C23.5085 82.79 23.7005 83.6 23.7005 84.536C23.7005 85.472 23.5085 86.288 23.1245 86.984C22.7405 87.668 22.1945 88.202 21.4865 88.586C20.7785 88.958 19.9565 89.144 19.0205 89.144ZM19.0205 87.074C20.3405 87.074 21.0005 86.228 21.0005 84.536C21.0005 83.684 20.8265 83.048 20.4785 82.628C20.1425 82.208 19.6565 81.998 19.0205 81.998C17.7005 81.998 17.0405 82.844 17.0405 84.536C17.0405 86.228 17.7005 87.074 19.0205 87.074ZM30.8985 79.946C31.9545 79.946 32.7405 80.258 33.2565 80.882C33.7725 81.494 34.0305 82.424 34.0305 83.672V87.83C34.0305 88.226 33.9045 88.538 33.6525 88.766C33.4125 88.994 33.0825 89.108 32.6625 89.108C32.2425 89.108 31.9125 88.994 31.6725 88.766C31.4325 88.538 31.3125 88.226 31.3125 87.83V83.798C31.3125 83.198 31.1985 82.76 30.9705 82.484C30.7545 82.208 30.4125 82.07 29.9445 82.07C29.3805 82.07 28.9245 82.25 28.5765 82.61C28.2405 82.97 28.0725 83.45 28.0725 84.05V87.83C28.0725 88.226 27.9525 88.538 27.7125 88.766C27.4725 88.994 27.1425 89.108 26.7225 89.108C26.3025 89.108 25.9665 88.994 25.7145 88.766C25.4745 88.538 25.3545 88.226 25.3545 87.83V81.224C25.3545 80.852 25.4805 80.552 25.7325 80.324C25.9965 80.096 26.3325 79.982 26.7405 79.982C27.1125 79.982 27.4125 80.096 27.6405 80.324C27.8805 80.54 28.0005 80.822 28.0005 81.17V81.422C28.3125 80.942 28.7145 80.576 29.2065 80.324C29.7105 80.072 30.2745 79.946 30.8985 79.946ZM40.0376 79.946C41.3336 79.946 42.2936 80.264 42.9176 80.9C43.5416 81.524 43.8536 82.484 43.8536 83.78V87.848C43.8536 88.244 43.7396 88.556 43.5116 88.784C43.2836 89 42.9656 89.108 42.5576 89.108C42.1736 89.108 41.8616 88.994 41.6216 88.766C41.3936 88.526 41.2796 88.22 41.2796 87.848V87.722C41.0996 88.166 40.7996 88.514 40.3796 88.766C39.9596 89.018 39.4676 89.144 38.9036 89.144C38.3036 89.144 37.7576 89.024 37.2656 88.784C36.7856 88.544 36.4016 88.208 36.1136 87.776C35.8376 87.344 35.6996 86.864 35.6996 86.336C35.6996 85.688 35.8616 85.178 36.1856 84.806C36.5216 84.434 37.0556 84.164 37.7876 83.996C38.5196 83.828 39.5216 83.744 40.7936 83.744H41.2616V83.42C41.2616 82.916 41.1476 82.55 40.9196 82.322C40.7036 82.094 40.3376 81.98 39.8216 81.98C39.3056 81.98 38.5616 82.16 37.5896 82.52C37.3136 82.652 37.0796 82.718 36.8876 82.718C36.6236 82.718 36.4136 82.628 36.2576 82.448C36.1016 82.256 36.0236 82.01 36.0236 81.71C36.0236 81.47 36.0776 81.272 36.1856 81.116C36.2936 80.96 36.4676 80.816 36.7076 80.684C37.1276 80.456 37.6376 80.276 38.2376 80.144C38.8496 80.012 39.4496 79.946 40.0376 79.946ZM39.4976 87.272C40.0256 87.272 40.4516 87.098 40.7756 86.75C41.0996 86.39 41.2616 85.928 41.2616 85.364V85.058H40.9556C39.9836 85.058 39.2996 85.136 38.9036 85.292C38.5196 85.448 38.3276 85.73 38.3276 86.138C38.3276 86.474 38.4356 86.75 38.6516 86.966C38.8796 87.17 39.1616 87.272 39.4976 87.272ZM50.7998 87.128C51.1598 87.152 51.4238 87.242 51.5918 87.398C51.7598 87.554 51.8438 87.782 51.8438 88.082C51.8438 88.43 51.7058 88.694 51.4298 88.874C51.1538 89.054 50.7578 89.126 50.2418 89.09L49.7378 89.054C47.6378 88.886 46.5878 87.788 46.5878 85.76V82.196H45.8678C45.4718 82.196 45.1718 82.112 44.9678 81.944C44.7638 81.764 44.6618 81.512 44.6618 81.188C44.6618 80.852 44.7638 80.6 44.9678 80.432C45.1718 80.252 45.4718 80.162 45.8678 80.162H46.5878V78.758C46.5878 78.362 46.7078 78.05 46.9478 77.822C47.1998 77.594 47.5358 77.48 47.9558 77.48C48.3758 77.48 48.7058 77.594 48.9458 77.822C49.1858 78.05 49.3058 78.362 49.3058 78.758V80.162H50.5658C51.3818 80.162 51.7898 80.504 51.7898 81.188C51.7898 81.512 51.6878 81.764 51.4838 81.944C51.2798 82.112 50.9738 82.196 50.5658 82.196H49.3058V85.958C49.3058 86.318 49.3898 86.594 49.5578 86.786C49.7258 86.966 49.9718 87.068 50.2958 87.092L50.7998 87.128ZM59.9387 86.372C60.1787 86.372 60.3707 86.468 60.5147 86.66C60.6707 86.852 60.7487 87.098 60.7487 87.398C60.7487 87.602 60.6887 87.794 60.5687 87.974C60.4487 88.142 60.2807 88.286 60.0647 88.406C59.6567 88.622 59.1827 88.802 58.6427 88.946C58.1027 89.078 57.6047 89.144 57.1487 89.144C56.1887 89.144 55.3487 88.958 54.6287 88.586C53.9207 88.214 53.3747 87.686 52.9907 87.002C52.6067 86.306 52.4147 85.49 52.4147 84.554C52.4147 83.654 52.6007 82.856 52.9727 82.16C53.3447 81.464 53.8607 80.924 54.5207 80.54C55.1807 80.144 55.9307 79.946 56.7707 79.946C57.5747 79.946 58.2767 80.126 58.8767 80.486C59.4887 80.834 59.9627 81.338 60.2987 81.998C60.6347 82.646 60.8027 83.408 60.8027 84.284C60.8027 84.548 60.7367 84.752 60.6047 84.896C60.4847 85.028 60.3107 85.094 60.0827 85.094H55.0427C55.1267 85.802 55.3427 86.318 55.6907 86.642C56.0387 86.954 56.5367 87.11 57.1847 87.11C57.5327 87.11 57.8447 87.068 58.1207 86.984C58.3967 86.9 58.7027 86.786 59.0387 86.642C59.2067 86.57 59.3687 86.51 59.5247 86.462C59.6807 86.402 59.8187 86.372 59.9387 86.372ZM56.8427 81.818C56.3267 81.818 55.9127 81.986 55.6007 82.322C55.2887 82.646 55.1027 83.12 55.0427 83.744H58.5167C58.4807 83.108 58.3187 82.628 58.0307 82.304C57.7547 81.98 57.3587 81.818 56.8427 81.818ZM77.6597 76.22C78.0797 76.22 78.4157 76.346 78.6677 76.598C78.9197 76.85 79.0457 77.186 79.0457 77.606V87.704C79.0457 88.124 78.9197 88.466 78.6677 88.73C78.4157 88.982 78.0797 89.108 77.6597 89.108C77.2397 89.108 76.9037 88.982 76.6517 88.73C76.4117 88.478 76.2917 88.136 76.2917 87.704V83.672H70.4417V87.704C70.4417 88.124 70.3157 88.466 70.0637 88.73C69.8117 88.982 69.4817 89.108 69.0737 89.108C68.6537 89.108 68.3177 88.982 68.0657 88.73C67.8137 88.478 67.6877 88.136 67.6877 87.704V77.606C67.6877 77.186 67.8137 76.85 68.0657 76.598C68.3177 76.346 68.6537 76.22 69.0737 76.22C69.4937 76.22 69.8237 76.346 70.0637 76.598C70.3157 76.85 70.4417 77.186 70.4417 77.606V81.44H76.2917V77.606C76.2917 77.186 76.4117 76.85 76.6517 76.598C76.9037 76.346 77.2397 76.22 77.6597 76.22ZM88.5045 79.982C88.9245 79.982 89.2545 80.096 89.4945 80.324C89.7465 80.552 89.8725 80.864 89.8725 81.26V87.866C89.8725 88.238 89.7405 88.538 89.4765 88.766C89.2245 88.994 88.8945 89.108 88.4865 89.108C88.1025 89.108 87.7965 89 87.5685 88.784C87.3405 88.568 87.2265 88.28 87.2265 87.92V87.74C86.9505 88.196 86.5845 88.544 86.1285 88.784C85.6845 89.024 85.1805 89.144 84.6165 89.144C83.5005 89.144 82.6665 88.838 82.1145 88.226C81.5745 87.602 81.3045 86.666 81.3045 85.418V81.26C81.3045 80.864 81.4245 80.552 81.6645 80.324C81.9165 80.096 82.2525 79.982 82.6725 79.982C83.0925 79.982 83.4225 80.096 83.6625 80.324C83.9025 80.552 84.0225 80.864 84.0225 81.26V85.472C84.0225 86 84.1305 86.39 84.3465 86.642C84.5745 86.894 84.9165 87.02 85.3725 87.02C85.9005 87.02 86.3265 86.84 86.6505 86.48C86.9865 86.12 87.1545 85.646 87.1545 85.058V81.26C87.1545 80.864 87.2745 80.552 87.5145 80.324C87.7545 80.096 88.0845 79.982 88.5045 79.982ZM97.4301 79.946C98.1981 79.946 98.8761 80.132 99.4641 80.504C100.052 80.876 100.508 81.41 100.832 82.106C101.168 82.79 101.336 83.588 101.336 84.5C101.336 85.412 101.168 86.222 100.832 86.93C100.508 87.626 100.046 88.172 99.4461 88.568C98.8581 88.952 98.1861 89.144 97.4301 89.144C96.8181 89.144 96.2661 89.018 95.7741 88.766C95.2821 88.502 94.9041 88.142 94.6401 87.686V87.83C94.6401 88.214 94.5201 88.526 94.2801 88.766C94.0401 88.994 93.7161 89.108 93.3081 89.108C92.9001 89.108 92.5701 88.994 92.3181 88.766C92.0781 88.526 91.9581 88.214 91.9581 87.83V77.462C91.9581 77.09 92.0841 76.79 92.3361 76.562C92.6001 76.334 92.9421 76.22 93.3621 76.22C93.7581 76.22 94.0761 76.328 94.3161 76.544C94.5561 76.76 94.6761 77.048 94.6761 77.408V81.35C94.9401 80.906 95.3121 80.564 95.7921 80.324C96.2841 80.072 96.8301 79.946 97.4301 79.946ZM96.6381 87.074C97.2741 87.074 97.7661 86.852 98.1141 86.408C98.4621 85.952 98.6361 85.316 98.6361 84.5C98.6361 83.696 98.4621 83.084 98.1141 82.664C97.7661 82.232 97.2741 82.016 96.6381 82.016C96.0021 82.016 95.5101 82.238 95.1621 82.682C94.8141 83.114 94.6401 83.732 94.6401 84.536C94.6401 85.352 94.8141 85.982 95.1621 86.426C95.5101 86.858 96.0021 87.074 96.6381 87.074Z" fill="#D96666"/>
<path d="M51 0C70.33 0 86 15.67 86 35C86 43.0393 83.2896 50.4455 78.7326 56.3546C78.5207 56.6293 76.9083 56.6562 76.6885 56.9244C73.5713 60.7283 71.065 62.9084 66.6244 65.1275C66.2847 65.2971 65.942 66.6615 65.5961 66.8203C61.1534 68.8618 56.2097 70 51 70C31.67 70 16 54.33 16 35C16 26.1089 19.3153 17.9921 24.7772 11.8182C25.0498 11.5101 26.9074 11.8322 27.1906 11.5337C30.9244 7.6002 34.3612 4.99939 39.5709 3.13277C39.8596 3.02928 39.7721 1.83818 40.0643 1.74221C43.5049 0.61168 47.181 0 51 0V0Z" fill="#345B73"/>
<path d="M53.0508 10.8008C66.4156 10.8008 77.25 21.6352 77.25 35C77.25 48.3648 66.4156 59.1992 53.0508 59.1992C39.686 59.1992 28.8516 48.3648 28.8516 35C28.8516 21.6352 39.686 10.8008 53.0508 10.8008Z" fill="#D96666"/>
<path d="M38.1591 32.6303C38.1591 33.0077 37.8531 33.3138 37.4755 33.3138H36.3361V34.4531C36.3361 34.8306 36.0301 35.1367 35.6525 35.1367C35.2748 35.1367 34.9689 34.8306 34.9689 34.4531V33.3138H33.8296C33.452 33.3138 33.146 33.0077 33.146 32.6303C33.146 32.2528 33.452 31.9467 33.8296 31.9467H34.9689V30.8074C34.9689 30.4299 35.2748 30.1238 35.6525 30.1238C36.0301 30.1238 36.3361 30.4299 36.3361 30.8074V31.9467H37.4755C37.8531 31.9467 38.1591 32.2526 38.1591 32.6303Z" fill="white"/>
<path d="M32.2404 41.853C32.2404 42.2305 31.9344 42.5366 31.5568 42.5366H30.4174V43.6759C30.4174 44.0534 30.1114 44.3595 29.7338 44.3595C29.3561 44.3595 29.0502 44.0534 29.0502 43.6759V42.5366H27.9109C27.5333 42.5366 27.2273 42.2305 27.2273 41.853C27.2273 41.4755 27.5333 41.1694 27.9109 41.1694H29.0502V40.0302C29.0502 39.6527 29.3561 39.3466 29.7338 39.3466C30.1114 39.3466 30.4174 39.6527 30.4174 40.0302V41.1694H31.5568C31.9344 41.1694 32.2404 41.4755 32.2404 41.853Z" fill="white"/>
<path d="M76.6016 25.7104C75.8171 27.2509 74.3055 28.7551 73.2845 28.8405C73.2558 28.8431 73.2265 28.8444 73.1967 28.8444C73.167 28.8444 73.1378 28.8431 73.1089 28.8405C72.0879 28.7551 70.5762 27.2509 69.7919 25.7104C68.9192 23.9966 69.2767 22.8867 70.2729 22.6074C71.0955 22.3768 72.0963 22.7847 72.9114 23.8993C73.0473 24.0851 73.3463 24.0851 73.4822 23.8993C74.2973 22.7847 75.2981 22.3768 76.1207 22.6074C77.1167 22.8867 77.4742 23.9966 76.6016 25.7104V25.7104ZM26.2184 27.9394C25.3957 27.7088 24.395 28.1168 23.5798 29.2313C23.4439 29.4171 23.1449 29.4171 23.009 29.2313C22.1939 28.1168 21.1931 27.7088 20.3705 27.9394C19.3745 28.2187 19.0169 29.3286 19.8895 31.0424C20.674 32.5829 22.1856 34.0871 23.2066 34.1726C23.2353 34.1752 23.2646 34.1764 23.2944 34.1764C23.324 34.1764 23.3533 34.1752 23.3821 34.1726C24.4032 34.0871 25.9147 32.5829 26.6992 31.0424C27.5719 29.3286 27.2144 28.2187 26.2184 27.9394V27.9394Z" fill="#FF94D2"/>
<path d="M74.5228 28.2599C74.0843 28.5946 73.6526 28.8098 73.2844 28.8405C73.2557 28.8431 73.2264 28.8444 73.1966 28.8444C73.167 28.8444 73.1377 28.8431 73.1088 28.8405C72.0878 28.7551 70.5761 27.2509 69.7918 25.7104C68.9191 23.9966 69.2766 22.8867 70.2728 22.6074C70.2998 22.5999 70.327 22.5929 70.3545 22.5868C70.3608 23.1437 70.5439 23.8226 70.9438 24.6079C71.7868 26.2635 73.3347 27.8839 74.5228 28.2599V28.2599ZM21.0413 29.9399C20.6414 29.1546 20.4584 28.4758 20.452 27.9188C20.4245 27.9249 20.3973 27.9319 20.3703 27.9394C19.3743 28.2187 19.0166 29.3286 19.8893 31.0424C20.6738 32.5829 22.1853 34.0871 23.2064 34.1726C23.2351 34.1752 23.2643 34.1764 23.2941 34.1764C23.3238 34.1764 23.3531 34.1752 23.3819 34.1726C23.7499 34.1418 24.1817 33.9266 24.6203 33.5919C23.4324 33.216 21.8844 31.5956 21.0413 29.9399V29.9399Z" fill="#FF72C3"/>
<path d="M59.653 16.1431C59.3911 20.0379 57.7585 25.234 55.9512 26.5226C55.86 26.6127 55.7615 26.7043 55.6548 26.7976C53.9458 28.2912 50.8455 29.6212 50.0021 28.6563C49.1588 27.6913 50.892 24.7968 52.6008 23.3033C52.6275 23.2801 52.6539 23.2572 52.6802 23.2349C52.3417 21.9941 52.1027 20.5509 51.982 19.1067C51.1438 18.9599 50.2487 18.6583 49.3685 18.1988C46.5998 16.7535 45.0271 14.2948 45.8559 12.7069C46.6847 11.1191 54.6508 10.3145 56.1621 10.4161C58.2932 10.5593 59.9576 11.6136 59.653 16.1431V16.1431Z" fill="#FFBEAA"/>
<path d="M63.3957 19.464C62.4941 23.262 60.0256 28.117 58.0303 29.0894C57.9256 29.1632 57.8131 29.2373 57.6925 29.3115C55.7603 30.5024 52.4827 31.3019 51.8105 30.211C51.1381 29.12 53.3256 26.5516 55.2578 25.3608C55.2879 25.3422 55.3178 25.3241 55.3474 25.3065C55.1114 22.9648 55.3165 20.0101 55.8703 17.6773C56.919 13.2603 58.8207 12.7456 60.8988 13.2389C62.2279 13.5544 63.3851 14.1025 63.7161 15.6867C63.9026 16.5796 63.7736 17.872 63.3957 19.464V19.464Z" fill="#FFDECF"/>
<path d="M60.6559 32.4499C58.8407 36.0147 55.343 39.4953 52.9804 39.693C52.9138 39.699 52.8461 39.702 52.7774 39.7019C52.7086 39.702 52.6409 39.699 52.5743 39.693C50.2117 39.4953 46.714 36.0147 44.8988 32.4499C42.8795 28.4844 43.7069 25.9163 46.0117 25.27C47.9151 24.7363 50.2308 25.6803 52.117 28.2591C52.4315 28.6889 53.1232 28.6889 53.4377 28.2591C55.3239 25.6803 57.6396 24.7363 59.5432 25.27C61.8478 25.9161 62.6752 28.4843 60.6559 32.4499Z" fill="#FB5858"/>
<path d="M55.8457 38.3492C54.8311 39.1237 53.832 39.6216 52.9804 39.6929C52.9138 39.6989 52.8461 39.7019 52.7774 39.7018C52.7086 39.7019 52.6409 39.6989 52.5743 39.6929C50.2117 39.4952 46.714 36.0146 44.8988 32.4498C42.8795 28.4843 43.7069 25.9161 46.0117 25.2699C46.0743 25.2524 46.1373 25.2364 46.2008 25.222C46.2154 26.511 46.639 28.0816 47.5641 29.8986C49.5148 33.7299 53.0969 37.4793 55.8457 38.3492V38.3492Z" fill="#F44545"/>
<path d="M63.5084 17.093C62.1964 19.6064 55.7746 18.8471 49.165 15.397C48.6006 15.1024 48.053 14.7976 47.5245 14.4852L45.3728 18.6073C47.1984 24.0498 47.7458 31.3205 46.6853 33.6905C46.5959 33.9392 46.457 34.1622 46.2665 34.3472C45.3498 35.2379 44.0859 35.7056 42.8291 34.4122C42.6156 34.1925 42.5199 33.8941 42.5141 33.5564C42.4811 31.6096 41.9474 29.7024 41.1048 27.9472C39.892 25.4208 38.6837 22.5452 37.6686 20.0625L37.658 20.0368C37.0347 18.5106 35.8729 17.2661 34.393 16.5395L24.7773 11.8184C28.8439 7.22175 34.1003 3.70234 40.0644 1.74234L40.5327 2.00812C41.6933 2.6667 42.9857 3.04828 44.315 3.16476C46.9775 3.39814 50.4206 4.47015 53.9162 6.2948C60.5259 9.74504 64.8205 14.5795 63.5084 17.093V17.093Z" fill="#FFDECF"/>
<path d="M45.6673 34.8268C44.8362 35.3552 43.8305 35.4426 42.8293 34.4122C42.6157 34.1925 42.52 33.8941 42.5143 33.5564C42.4812 31.6096 41.9474 29.7023 41.1048 27.947C39.892 25.4205 38.6837 22.5451 37.6687 20.0624C37.6651 20.0538 37.6617 20.0453 37.6582 20.0367C37.0381 18.5175 35.8897 17.2741 34.4168 16.551L24.7773 11.8184C25.6421 10.841 26.5606 9.91225 27.5283 9.03697L35.406 12.9049C37.2566 13.8135 38.6996 15.3755 39.4786 17.2844C39.4829 17.2951 39.4873 17.3059 39.4917 17.3167C40.767 20.4359 42.2853 24.0488 43.809 27.223C44.8678 29.4284 45.5382 31.8248 45.5798 34.2709C45.5832 34.4684 45.6112 34.6555 45.6673 34.8268V34.8268Z" fill="#FFBEAA"/>
<path d="M78.7327 56.3546C75.2858 60.8244 70.7824 64.4377 65.5964 66.8205L61.2327 63.7C56.2139 64.8916 49.5941 64.9809 43.6814 63.0507C37.0254 60.8778 34.4911 57.244 33.8339 56.0536C32.3967 53.4501 31.3536 49.7897 32.427 49.0565C33.319 48.4474 35.2386 50.1484 36.7814 51.1328C41.2157 53.9623 47.639 53.2424 53.2114 52.2184C54.3637 52.0066 54.3493 50.3504 53.1934 50.1595C51.7906 49.9279 50.4248 49.7215 48.8201 49.4539C45.0762 48.8294 42.2314 48.9303 41.9243 47.7565C41.8267 47.383 41.9362 46.5667 42.3754 45.9167C42.5083 45.7201 42.6827 45.5628 42.8875 45.4449C44.9863 44.0169 52.5442 43.3595 57.7513 44.4769C59.702 44.8956 61.1118 45.3675 62.1121 45.8786C62.6069 46.1314 66.9834 48.9714 66.9834 48.9714L78.7327 56.3546Z" fill="#FFDECF"/>
<path d="M69.3802 64.7912C68.1663 65.5417 66.903 66.2201 65.5964 66.8205L63.3301 65.1998C62.0574 64.2897 60.4794 63.9081 58.9334 64.1495C54.2912 64.8746 48.7287 64.6985 43.6814 63.0507C37.0254 60.8779 34.4911 57.244 33.8339 56.0536C32.3967 53.4501 31.3536 49.7897 32.427 49.0565C32.4803 49.02 32.5375 48.9919 32.5979 48.9714C32.9952 50.1988 35.2057 53.6833 35.7351 54.1722C44.1173 61.9154 54.5815 61.9678 60.8217 60.9613C62.3867 60.7089 63.9883 61.0637 65.2923 61.9652L69.3802 64.7912Z" fill="#FFBEAA"/>
<path d="M41.8945 47.3312C41.9185 46.9204 42.0641 46.3768 42.3751 45.9166C42.508 45.72 42.6824 45.5626 42.8872 45.4448C43.167 45.2545 43.5436 45.0778 43.9988 44.9173C44.7975 44.9496 45.4299 45.3018 45.5425 45.8436C45.6901 46.5545 44.8866 47.3227 43.7479 47.5593C43.0222 47.7101 42.3356 47.6086 41.8945 47.3312V47.3312Z" fill="white"/>
<path d="M73.7746 39.703C72.7444 41.726 70.7595 43.7012 69.4187 43.8134C69.381 43.8169 69.3426 43.8185 69.3035 43.8185C69.2643 43.8186 69.2259 43.8169 69.1882 43.8134C67.8474 43.7012 65.8625 41.726 64.8323 39.703C63.6864 37.4525 64.156 35.9952 65.4638 35.6284C66.5441 35.3255 67.8582 35.8612 68.9287 37.3246C69.1071 37.5685 69.4998 37.5685 69.6782 37.3246C70.7486 35.8612 72.0628 35.3254 73.1431 35.6284C74.451 35.9952 74.9205 37.4526 73.7746 39.703V39.703Z" fill="#F44545"/>
<path d="M71.0448 43.051C70.469 43.4905 69.902 43.773 69.4187 43.8134C69.381 43.8168 69.3426 43.8185 69.3035 43.8185C69.2643 43.8186 69.2259 43.8168 69.1882 43.8134C67.8474 43.7012 65.8625 41.726 64.8323 39.703C63.6864 37.4525 64.156 35.9952 65.4638 35.6284C65.4994 35.6184 65.5351 35.6094 65.5712 35.6013C65.5795 36.3327 65.8199 37.2241 66.3449 38.2553C67.4521 40.4294 69.4849 42.5571 71.0448 43.051V43.051Z" fill="#C42D2D"/>
</svg>
