<svg width="102" height="92" viewBox="0 0 102 92" fill="none" xmlns="http://www.w3.org/2000/svg">
<path d="M89 37.5004C89 58.2101 71.9863 75 51.0004 75C30.0135 75 13 58.2101 13 37.5004C13 16.7899 30.0135 0 51.0004 0C71.9863 0 89 16.7899 89 37.5004Z" fill="url(#paint0_linear)"/>
<path d="M55.1733 7.50735C52.8693 7.50735 50.9994 9.13138 50.9994 10.6878C50.9994 9.15465 49.1308 7.50735 46.8258 7.50735C44.522 7.50735 42.6531 9.36038 42.6531 11.6489C42.6531 17.7808 50.9994 22.2661 50.9994 22.2661C50.9994 22.2661 59.3472 17.7808 59.3472 11.6489C59.3472 9.36038 57.4782 7.50735 55.1733 7.50735Z" fill="white"/>
<path d="M86.261 35.9287L78.6534 25.3208L63.7454 19.8156C63.7454 19.8156 62.629 19.8156 62.2232 20.8159C61.0063 20.5156 59.0798 20.2147 59.0798 20.2147C59.0798 20.2147 57.559 20.416 56.9501 22.0183C55.4288 23.1181 51.3714 28.2229 51.3714 28.2229L51.5752 35.1283C51.5752 35.1283 55.1237 35.2097 55.4063 30.5274C56.7438 31.0682 57.6891 30.648 58.2223 30.2278C60.7177 30.9003 61.6581 29.133 62.0011 27.9612L65.2657 28.9229L66.585 31.7254L62.3248 41.2348L52.9943 45.6387C52.9943 45.6387 49.545 47.2395 51.6765 50.742C53.2979 50.1415 61.1076 46.4391 66.7871 47.1384C72.4676 47.84 76.7261 46.9392 77.842 46.6383C78.7729 47.7026 82.0441 50.8888 85.1781 53.8999C87.4779 49.2415 88.8201 44.0423 88.9734 38.5486L86.261 35.9287Z" fill="white"/>
<path d="M49.0055 45.6387L39.6751 41.2348L35.4154 31.7254L36.7347 28.9229L39.9985 27.9612C40.3417 29.133 41.2813 30.9003 43.7776 30.2286C44.3113 30.648 45.2566 31.0682 46.5938 30.5274C46.8767 35.2104 50.4261 35.1283 50.4261 35.1283L50.629 28.2229C50.629 28.2229 46.5722 23.1181 45.0509 22.0183C44.4422 20.416 42.92 20.2147 42.92 20.2147C42.92 20.2147 40.9935 20.5156 39.7778 20.8159C39.3712 19.8156 38.2555 19.8156 38.2555 19.8156L23.3455 25.3208L15.7401 35.9287L13.0266 38.5494C13.1806 44.0423 14.5215 49.2415 16.8207 53.8999C19.9566 50.8888 23.2266 47.7026 24.1575 46.6383C25.274 46.9392 29.5337 47.84 35.2131 47.1384C40.8922 46.4391 48.7024 50.1415 50.324 50.742C52.4548 47.2395 49.0055 45.6387 49.0055 45.6387Z" fill="white"/>
<path d="M2.574 91C2.154 91 1.83 90.886 1.602 90.658C1.374 90.43 1.26 90.106 1.26 89.686V79.624C1.26 79.204 1.374 78.88 1.602 78.652C1.83 78.424 2.154 78.31 2.574 78.31H6.192C7.572 78.31 8.76 78.562 9.756 79.066C10.752 79.57 11.514 80.296 12.042 81.244C12.57 82.192 12.834 83.326 12.834 84.646C12.834 85.966 12.57 87.106 12.042 88.066C11.526 89.014 10.77 89.74 9.774 90.244C8.778 90.748 7.584 91 6.192 91H2.574ZM5.994 88.732C8.694 88.732 10.044 87.37 10.044 84.646C10.044 81.934 8.694 80.578 5.994 80.578H4.068V88.732H5.994ZM19.0205 91.144C18.0845 91.144 17.2625 90.958 16.5545 90.586C15.8465 90.202 15.3005 89.668 14.9165 88.984C14.5325 88.288 14.3405 87.472 14.3405 86.536C14.3405 85.6 14.5325 84.79 14.9165 84.106C15.3005 83.41 15.8465 82.876 16.5545 82.504C17.2625 82.132 18.0845 81.946 19.0205 81.946C19.9565 81.946 20.7785 82.132 21.4865 82.504C22.1945 82.876 22.7405 83.41 23.1245 84.106C23.5085 84.79 23.7005 85.6 23.7005 86.536C23.7005 87.472 23.5085 88.288 23.1245 88.984C22.7405 89.668 22.1945 90.202 21.4865 90.586C20.7785 90.958 19.9565 91.144 19.0205 91.144ZM19.0205 89.074C20.3405 89.074 21.0005 88.228 21.0005 86.536C21.0005 85.684 20.8265 85.048 20.4785 84.628C20.1425 84.208 19.6565 83.998 19.0205 83.998C17.7005 83.998 17.0405 84.844 17.0405 86.536C17.0405 88.228 17.7005 89.074 19.0205 89.074ZM30.8985 81.946C31.9545 81.946 32.7405 82.258 33.2565 82.882C33.7725 83.494 34.0305 84.424 34.0305 85.672V89.83C34.0305 90.226 33.9045 90.538 33.6525 90.766C33.4125 90.994 33.0825 91.108 32.6625 91.108C32.2425 91.108 31.9125 90.994 31.6725 90.766C31.4325 90.538 31.3125 90.226 31.3125 89.83V85.798C31.3125 85.198 31.1985 84.76 30.9705 84.484C30.7545 84.208 30.4125 84.07 29.9445 84.07C29.3805 84.07 28.9245 84.25 28.5765 84.61C28.2405 84.97 28.0725 85.45 28.0725 86.05V89.83C28.0725 90.226 27.9525 90.538 27.7125 90.766C27.4725 90.994 27.1425 91.108 26.7225 91.108C26.3025 91.108 25.9665 90.994 25.7145 90.766C25.4745 90.538 25.3545 90.226 25.3545 89.83V83.224C25.3545 82.852 25.4805 82.552 25.7325 82.324C25.9965 82.096 26.3325 81.982 26.7405 81.982C27.1125 81.982 27.4125 82.096 27.6405 82.324C27.8805 82.54 28.0005 82.822 28.0005 83.17V83.422C28.3125 82.942 28.7145 82.576 29.2065 82.324C29.7105 82.072 30.2745 81.946 30.8985 81.946ZM40.0376 81.946C41.3336 81.946 42.2936 82.264 42.9176 82.9C43.5416 83.524 43.8536 84.484 43.8536 85.78V89.848C43.8536 90.244 43.7396 90.556 43.5116 90.784C43.2836 91 42.9656 91.108 42.5576 91.108C42.1736 91.108 41.8616 90.994 41.6216 90.766C41.3936 90.526 41.2796 90.22 41.2796 89.848V89.722C41.0996 90.166 40.7996 90.514 40.3796 90.766C39.9596 91.018 39.4676 91.144 38.9036 91.144C38.3036 91.144 37.7576 91.024 37.2656 90.784C36.7856 90.544 36.4016 90.208 36.1136 89.776C35.8376 89.344 35.6996 88.864 35.6996 88.336C35.6996 87.688 35.8616 87.178 36.1856 86.806C36.5216 86.434 37.0556 86.164 37.7876 85.996C38.5196 85.828 39.5216 85.744 40.7936 85.744H41.2616V85.42C41.2616 84.916 41.1476 84.55 40.9196 84.322C40.7036 84.094 40.3376 83.98 39.8216 83.98C39.3056 83.98 38.5616 84.16 37.5896 84.52C37.3136 84.652 37.0796 84.718 36.8876 84.718C36.6236 84.718 36.4136 84.628 36.2576 84.448C36.1016 84.256 36.0236 84.01 36.0236 83.71C36.0236 83.47 36.0776 83.272 36.1856 83.116C36.2936 82.96 36.4676 82.816 36.7076 82.684C37.1276 82.456 37.6376 82.276 38.2376 82.144C38.8496 82.012 39.4496 81.946 40.0376 81.946ZM39.4976 89.272C40.0256 89.272 40.4516 89.098 40.7756 88.75C41.0996 88.39 41.2616 87.928 41.2616 87.364V87.058H40.9556C39.9836 87.058 39.2996 87.136 38.9036 87.292C38.5196 87.448 38.3276 87.73 38.3276 88.138C38.3276 88.474 38.4356 88.75 38.6516 88.966C38.8796 89.17 39.1616 89.272 39.4976 89.272ZM50.7998 89.128C51.1598 89.152 51.4238 89.242 51.5918 89.398C51.7598 89.554 51.8438 89.782 51.8438 90.082C51.8438 90.43 51.7058 90.694 51.4298 90.874C51.1538 91.054 50.7578 91.126 50.2418 91.09L49.7378 91.054C47.6378 90.886 46.5878 89.788 46.5878 87.76V84.196H45.8678C45.4718 84.196 45.1718 84.112 44.9678 83.944C44.7638 83.764 44.6618 83.512 44.6618 83.188C44.6618 82.852 44.7638 82.6 44.9678 82.432C45.1718 82.252 45.4718 82.162 45.8678 82.162H46.5878V80.758C46.5878 80.362 46.7078 80.05 46.9478 79.822C47.1998 79.594 47.5358 79.48 47.9558 79.48C48.3758 79.48 48.7058 79.594 48.9458 79.822C49.1858 80.05 49.3058 80.362 49.3058 80.758V82.162H50.5658C51.3818 82.162 51.7898 82.504 51.7898 83.188C51.7898 83.512 51.6878 83.764 51.4838 83.944C51.2798 84.112 50.9738 84.196 50.5658 84.196H49.3058V87.958C49.3058 88.318 49.3898 88.594 49.5578 88.786C49.7258 88.966 49.9718 89.068 50.2958 89.092L50.7998 89.128ZM59.9387 88.372C60.1787 88.372 60.3707 88.468 60.5147 88.66C60.6707 88.852 60.7487 89.098 60.7487 89.398C60.7487 89.602 60.6887 89.794 60.5687 89.974C60.4487 90.142 60.2807 90.286 60.0647 90.406C59.6567 90.622 59.1827 90.802 58.6427 90.946C58.1027 91.078 57.6047 91.144 57.1487 91.144C56.1887 91.144 55.3487 90.958 54.6287 90.586C53.9207 90.214 53.3747 89.686 52.9907 89.002C52.6067 88.306 52.4147 87.49 52.4147 86.554C52.4147 85.654 52.6007 84.856 52.9727 84.16C53.3447 83.464 53.8607 82.924 54.5207 82.54C55.1807 82.144 55.9307 81.946 56.7707 81.946C57.5747 81.946 58.2767 82.126 58.8767 82.486C59.4887 82.834 59.9627 83.338 60.2987 83.998C60.6347 84.646 60.8027 85.408 60.8027 86.284C60.8027 86.548 60.7367 86.752 60.6047 86.896C60.4847 87.028 60.3107 87.094 60.0827 87.094H55.0427C55.1267 87.802 55.3427 88.318 55.6907 88.642C56.0387 88.954 56.5367 89.11 57.1847 89.11C57.5327 89.11 57.8447 89.068 58.1207 88.984C58.3967 88.9 58.7027 88.786 59.0387 88.642C59.2067 88.57 59.3687 88.51 59.5247 88.462C59.6807 88.402 59.8187 88.372 59.9387 88.372ZM56.8427 83.818C56.3267 83.818 55.9127 83.986 55.6007 84.322C55.2887 84.646 55.1027 85.12 55.0427 85.744H58.5167C58.4807 85.108 58.3187 84.628 58.0307 84.304C57.7547 83.98 57.3587 83.818 56.8427 83.818ZM77.6597 78.22C78.0797 78.22 78.4157 78.346 78.6677 78.598C78.9197 78.85 79.0457 79.186 79.0457 79.606V89.704C79.0457 90.124 78.9197 90.466 78.6677 90.73C78.4157 90.982 78.0797 91.108 77.6597 91.108C77.2397 91.108 76.9037 90.982 76.6517 90.73C76.4117 90.478 76.2917 90.136 76.2917 89.704V85.672H70.4417V89.704C70.4417 90.124 70.3157 90.466 70.0637 90.73C69.8117 90.982 69.4817 91.108 69.0737 91.108C68.6537 91.108 68.3177 90.982 68.0657 90.73C67.8137 90.478 67.6877 90.136 67.6877 89.704V79.606C67.6877 79.186 67.8137 78.85 68.0657 78.598C68.3177 78.346 68.6537 78.22 69.0737 78.22C69.4937 78.22 69.8237 78.346 70.0637 78.598C70.3157 78.85 70.4417 79.186 70.4417 79.606V83.44H76.2917V79.606C76.2917 79.186 76.4117 78.85 76.6517 78.598C76.9037 78.346 77.2397 78.22 77.6597 78.22ZM88.5045 81.982C88.9245 81.982 89.2545 82.096 89.4945 82.324C89.7465 82.552 89.8725 82.864 89.8725 83.26V89.866C89.8725 90.238 89.7405 90.538 89.4765 90.766C89.2245 90.994 88.8945 91.108 88.4865 91.108C88.1025 91.108 87.7965 91 87.5685 90.784C87.3405 90.568 87.2265 90.28 87.2265 89.92V89.74C86.9505 90.196 86.5845 90.544 86.1285 90.784C85.6845 91.024 85.1805 91.144 84.6165 91.144C83.5005 91.144 82.6665 90.838 82.1145 90.226C81.5745 89.602 81.3045 88.666 81.3045 87.418V83.26C81.3045 82.864 81.4245 82.552 81.6645 82.324C81.9165 82.096 82.2525 81.982 82.6725 81.982C83.0925 81.982 83.4225 82.096 83.6625 82.324C83.9025 82.552 84.0225 82.864 84.0225 83.26V87.472C84.0225 88 84.1305 88.39 84.3465 88.642C84.5745 88.894 84.9165 89.02 85.3725 89.02C85.9005 89.02 86.3265 88.84 86.6505 88.48C86.9865 88.12 87.1545 87.646 87.1545 87.058V83.26C87.1545 82.864 87.2745 82.552 87.5145 82.324C87.7545 82.096 88.0845 81.982 88.5045 81.982ZM97.4301 81.946C98.1981 81.946 98.8761 82.132 99.4641 82.504C100.052 82.876 100.508 83.41 100.832 84.106C101.168 84.79 101.336 85.588 101.336 86.5C101.336 87.412 101.168 88.222 100.832 88.93C100.508 89.626 100.046 90.172 99.4461 90.568C98.8581 90.952 98.1861 91.144 97.4301 91.144C96.8181 91.144 96.2661 91.018 95.7741 90.766C95.2821 90.502 94.9041 90.142 94.6401 89.686V89.83C94.6401 90.214 94.5201 90.526 94.2801 90.766C94.0401 90.994 93.7161 91.108 93.3081 91.108C92.9001 91.108 92.5701 90.994 92.3181 90.766C92.0781 90.526 91.9581 90.214 91.9581 89.83V79.462C91.9581 79.09 92.0841 78.79 92.3361 78.562C92.6001 78.334 92.9421 78.22 93.3621 78.22C93.7581 78.22 94.0761 78.328 94.3161 78.544C94.5561 78.76 94.6761 79.048 94.6761 79.408V83.35C94.9401 82.906 95.3121 82.564 95.7921 82.324C96.2841 82.072 96.8301 81.946 97.4301 81.946ZM96.6381 89.074C97.2741 89.074 97.7661 88.852 98.1141 88.408C98.4621 87.952 98.6361 87.316 98.6361 86.5C98.6361 85.696 98.4621 85.084 98.1141 84.664C97.7661 84.232 97.2741 84.016 96.6381 84.016C96.0021 84.016 95.5101 84.238 95.1621 84.682C94.8141 85.114 94.6401 85.732 94.6401 86.536C94.6401 87.352 94.8141 87.982 95.1621 88.426C95.5101 88.858 96.0021 89.074 96.6381 89.074Z" fill="#D96666"/>
<defs>
<linearGradient id="paint0_linear" x1="51" y1="75" x2="51" y2="0" gradientUnits="userSpaceOnUse">
<stop stop-color="#D96666"/>
<stop offset="1" stop-color="#FF928E"/>
</linearGradient>
</defs>
</svg>
